<?xml version="1.0" encoding="utf-8"?>
<!-- Generator: Adobe Illustrator 27.3.0, SVG Export Plug-In . SVG Version: 6.00 Build 0)  -->
<svg version="1.1" id="Ebene_1" xmlns="http://www.w3.org/2000/svg" xmlns:xlink="http://www.w3.org/1999/xlink" x="0px" y="0px"
	 viewBox="0 0 816.4 1145.2" style="enable-background:new 0 0 816.4 1145.2;" xml:space="preserve">
<style type="text/css">
	.st0{fill:#3F454D;}
</style>
<g>
	<path class="st0" d="M81.4,83.1c-0.9,0-1.5,0.7-1.5,1.5c0,0.9,0.7,1.5,1.5,1.5c0.9,0,1.5-0.7,1.5-1.5
		C82.9,83.9,82.3,83.1,81.4,83.1"/>
	<path class="st0" d="M85.3,82.3c0-0.9-0.7-1.5-1.5-1.5c-0.9,0-1.5,0.7-1.5,1.5c0,0.9,0.7,1.5,1.5,1.5
		C84.6,83.9,85.3,83.1,85.3,82.3"/>
	<path class="st0" d="M85.3,87.1c0-0.9-0.7-1.5-1.5-1.5c-0.9,0-1.5,0.7-1.5,1.5c0,0.9,0.7,1.5,1.5,1.5
		C84.6,88.7,85.3,87.9,85.3,87.1"/>
	<path class="st0" d="M86.4,83.1c-0.9,0-1.5,0.7-1.5,1.5c0,0.9,0.7,1.5,1.5,1.5c0.9,0,1.5-0.7,1.5-1.5C88,83.8,87.3,83.1,86.4,83.1"
		/>
	<path class="st0" d="M89.4,80.7c-0.9,0-1.5,0.7-1.5,1.5c0,0.9,0.7,1.5,1.5,1.5s1.5-0.7,1.5-1.5C90.9,81.3,90.2,80.7,89.4,80.7"/>
	<path class="st0" d="M89.4,85.7c-0.9,0-1.5,0.7-1.5,1.5c0,0.9,0.7,1.5,1.5,1.5s1.5-0.7,1.5-1.5C90.9,86.3,90.2,85.7,89.4,85.7"/>
	<path class="st0" d="M86.3,91.2c0.9,0,1.5-0.7,1.5-1.5c0-0.9-0.7-1.5-1.5-1.5c-0.9,0-1.5,0.7-1.5,1.5
		C84.7,90.5,85.5,91.2,86.3,91.2"/>
	<path class="st0" d="M85.5,92.6c0-0.9-0.7-1.5-1.5-1.5c-0.9,0-1.5,0.7-1.5,1.5c0,0.9,0.7,1.5,1.5,1.5
		C84.7,94.2,85.5,93.4,85.5,92.6"/>
	<path class="st0" d="M81.5,97.5c0.9,0,1.5-0.7,1.5-1.5c0-0.9-0.7-1.5-1.5-1.5c-0.9,0-1.5,0.7-1.5,1.5
		C79.9,96.7,80.7,97.5,81.5,97.5"/>
	<path class="st0" d="M92.7,83.1c-0.9,0-1.5,0.7-1.5,1.5c0,0.9,0.7,1.5,1.5,1.5c0.9,0,1.5-0.7,1.5-1.5
		C94.2,83.8,93.5,83.1,92.7,83.1"/>
	<path class="st0" d="M92.5,88.3c-0.9,0-1.5,0.7-1.5,1.5c0,0.9,0.7,1.5,1.5,1.5s1.5-0.7,1.5-1.5C94,89,93.3,88.3,92.5,88.3"/>
	<path class="st0" d="M96.1,86c-0.9,0-1.5,0.7-1.5,1.5c0,0.9,0.7,1.5,1.5,1.5c0.9,0,1.5-0.7,1.5-1.5C97.7,86.6,96.9,86,96.1,86"/>
	<path class="st0" d="M97.2,92.8c0-0.9-0.7-1.5-1.5-1.5c-0.9,0-1.5,0.7-1.5,1.5c0,0.9,0.7,1.5,1.5,1.5S97.2,93.6,97.2,92.8"/>
	<path class="st0" d="M93.4,95c0-0.9-0.7-1.5-1.5-1.5c-0.9,0-1.5,0.7-1.5,1.5c0,0.9,0.7,1.5,1.5,1.5C92.8,96.6,93.4,96,93.4,95"/>
	<path class="st0" d="M86.5,97.3c0.9,0,1.5-0.7,1.5-1.5c0-0.9-0.7-1.5-1.5-1.5c-0.9,0-1.5,0.7-1.5,1.5C85,96.5,85.7,97.3,86.5,97.3"
		/>
	<path class="st0" d="M84.2,100.9c0.9,0,1.5-0.7,1.5-1.5c0-0.9-0.7-1.5-1.5-1.5c-0.9,0-1.5,0.7-1.5,1.5
		C82.6,100.2,83.3,100.9,84.2,100.9"/>
	<path class="st0" d="M81.4,104.8c0.9,0,1.5-0.7,1.5-1.5c0-0.9-0.7-1.5-1.5-1.5c-0.9,0-1.5,0.7-1.5,1.5
		C79.9,104,80.6,104.8,81.4,104.8"/>
	<path class="st0" d="M90.6,92.3c0-0.9-0.7-1.5-1.5-1.5c-0.9,0-1.5,0.7-1.5,1.5c0,0.9,0.7,1.5,1.5,1.5
		C89.8,93.8,90.6,93.1,90.6,92.3"/>
	<path class="st0" d="M99.8,88.8c-0.9,0-1.5,0.7-1.5,1.5c0,0.9,0.7,1.5,1.5,1.5c0.9,0,1.5-0.7,1.5-1.5
		C101.3,89.5,100.6,88.8,99.8,88.8"/>
	<path class="st0" d="M99.2,94.4c-0.9,0-1.5,0.7-1.5,1.5c0,0.9,0.7,1.5,1.5,1.5c0.9,0,1.5-0.7,1.5-1.5S100.1,94.4,99.2,94.4"/>
	<path class="st0" d="M103,97.7c-0.9,0-1.5,0.7-1.5,1.5c0,0.9,0.7,1.5,1.5,1.5c0.9,0,1.5-0.7,1.5-1.5
		C104.5,98.4,103.8,97.7,103,97.7"/>
	<path class="st0" d="M98.3,99.9c-0.9,0-1.5,0.7-1.5,1.5c0,0.9,0.7,1.5,1.5,1.5c0.9,0,1.5-0.7,1.5-1.5
		C99.9,100.6,99.1,99.9,98.3,99.9"/>
	<path class="st0" d="M96.6,98.2c0-0.9-0.7-1.5-1.5-1.5c-0.9,0-1.5,0.7-1.5,1.5c0,0.9,0.7,1.5,1.5,1.5
		C95.9,99.9,96.6,99.1,96.6,98.2"/>
	<path class="st0" d="M92.7,103.9c0.9,0,1.5-0.7,1.5-1.5c0-0.9-0.7-1.5-1.5-1.5c-0.9,0-1.5,0.7-1.5,1.5
		C91.2,103.3,91.8,103.9,92.7,103.9"/>
	<path class="st0" d="M87.1,104.5c0.9,0,1.5-0.7,1.5-1.5c0-0.9-0.7-1.5-1.5-1.5c-0.9,0-1.5,0.7-1.5,1.5
		C85.5,103.8,86.3,104.5,87.1,104.5"/>
	<path class="st0" d="M91.1,98.9c0-0.9-0.7-1.5-1.5-1.5c-0.9,0-1.5,0.7-1.5,1.5c0,0.9,0.7,1.5,1.5,1.5
		C90.3,100.5,91.1,99.8,91.1,98.9"/>
	<path class="st0" d="M101.8,103.5c-0.9,0-1.5,0.7-1.5,1.5c0,0.9,0.7,1.5,1.5,1.5c0.9,0,1.5-0.7,1.5-1.5
		C103.5,104.2,102.7,103.5,101.8,103.5"/>
	<path class="st0" d="M96,104.7c-0.9,0-1.5,0.7-1.5,1.5c0,0.9,0.7,1.5,1.5,1.5c0.9,0,1.5-0.7,1.5-1.5
		C97.6,105.3,96.8,104.7,96,104.7"/>
	<path class="st0" d="M93.4,109.2c-0.9,0-1.5,0.7-1.5,1.5c0,0.9,0.7,1.5,1.5,1.5c0.9,0,1.5-0.7,1.5-1.5
		C95,109.9,94.3,109.2,93.4,109.2"/>
	<path class="st0" d="M90.1,105.3c-0.9,0-1.5,0.7-1.5,1.5c0,0.9,0.7,1.5,1.5,1.5c0.9,0,1.5-0.7,1.5-1.5
		C91.7,106,91,105.3,90.1,105.3"/>
	<path class="st0" d="M87.5,110c-0.9,0-1.5,0.7-1.5,1.5c0,0.9,0.7,1.5,1.5,1.5c0.9,0,1.5-0.7,1.5-1.5S88.3,110,87.5,110"/>
	<path class="st0" d="M84.3,105.7c-0.9,0-1.5,0.7-1.5,1.5c0,0.9,0.7,1.5,1.5,1.5c0.9,0,1.5-0.7,1.5-1.5
		C85.9,106.4,85.1,105.7,84.3,105.7"/>
	<path class="st0" d="M81.5,110.3c-0.9,0-1.5,0.7-1.5,1.5c0,0.9,0.7,1.5,1.5,1.5c0.9,0,1.5-0.7,1.5-1.5
		C83,110.9,82.4,110.3,81.5,110.3"/>
	<path class="st0" d="M78.5,105.7c-0.9,0-1.5,0.7-1.5,1.5c0,0.9,0.7,1.5,1.5,1.5c0.9,0,1.5-0.7,1.5-1.5
		C80.1,106.4,79.4,105.7,78.5,105.7"/>
	<path class="st0" d="M75.4,110c-0.9,0-1.5,0.7-1.5,1.5c0,0.9,0.7,1.5,1.5,1.5c0.9,0,1.5-0.7,1.5-1.5C77,110.6,76.2,110,75.4,110"/>
	<path class="st0" d="M69.5,109.2c-0.9,0-1.5,0.7-1.5,1.5c0,0.9,0.7,1.5,1.5,1.5s1.5-0.7,1.5-1.5C71.1,109.9,70.4,109.2,69.5,109.2"
		/>
	<path class="st0" d="M103.6,91.8c-0.9,0-1.5,0.7-1.5,1.5c0,0.9,0.7,1.5,1.5,1.5c0.9,0,1.5-0.7,1.5-1.5
		C105.2,92.5,104.5,91.8,103.6,91.8"/>
	<path class="st0" d="M107.5,95c-0.9,0-1.5,0.7-1.5,1.5c0,0.9,0.7,1.5,1.5,1.5c0.9,0,1.5-0.7,1.5-1.5C109,95.7,108.4,95,107.5,95"/>
	<path class="st0" d="M108.3,89.1c-0.9,0-1.5,0.7-1.5,1.5c0,0.9,0.7,1.5,1.5,1.5s1.5-0.7,1.5-1.5C109.9,89.8,109.1,89.1,108.3,89.1"
		/>
	<path class="st0" d="M104,86.1c-0.9,0-1.5,0.7-1.5,1.5c0,0.9,0.7,1.5,1.5,1.5c0.9,0,1.5-0.7,1.5-1.5
		C105.5,86.7,104.9,86.1,104,86.1"/>
	<path class="st0" d="M108.6,83.1c-0.9,0-1.5,0.7-1.5,1.5c0,0.9,0.7,1.5,1.5,1.5c0.9,0,1.5-0.7,1.5-1.5
		C110.1,83.8,109.4,83.1,108.6,83.1"/>
	<path class="st0" d="M104,80.3c-0.9,0-1.5,0.7-1.5,1.5c0,0.9,0.7,1.5,1.5,1.5c0.9,0,1.5-0.7,1.5-1.5S104.9,80.3,104,80.3"/>
	<path class="st0" d="M106.8,78.7c0,0.9,0.7,1.5,1.5,1.5s1.5-0.7,1.5-1.5c0-0.9-0.7-1.5-1.5-1.5C107.4,77.1,106.8,77.8,106.8,78.7"
		/>
	<path class="st0" d="M102,75.9c0,0.9,0.7,1.5,1.5,1.5c0.9,0,1.5-0.7,1.5-1.5c0-0.9-0.7-1.5-1.5-1.5C102.7,74.4,102,75.1,102,75.9"
		/>
	<path class="st0" d="M107.5,74.2c0.9,0,1.5-0.7,1.5-1.5c0-0.9-0.7-1.5-1.5-1.5c-0.9,0-1.5,0.7-1.5,1.5
		C105.9,73.6,106.7,74.2,107.5,74.2"/>
	<path class="st0" d="M101.5,70.2c0,0.9,0.7,1.5,1.5,1.5c0.9,0,1.5-0.7,1.5-1.5c0-0.9-0.7-1.5-1.5-1.5
		C102.1,68.6,101.5,69.3,101.5,70.2"/>
	<path class="st0" d="M101.8,65.9c0.9,0,1.5-0.7,1.5-1.5c0-0.9-0.7-1.5-1.5-1.5c-0.9,0-1.5,0.7-1.5,1.5
		C100.3,65.2,101,65.9,101.8,65.9"/>
	<path class="st0" d="M96.7,67.9c0,0.9,0.7,1.5,1.5,1.5c0.9,0,1.5-0.7,1.5-1.5c0-0.9-0.7-1.5-1.5-1.5C97.4,66.4,96.7,67.1,96.7,67.9
		"/>
	<path class="st0" d="M94.9,69.6c-0.9,0-1.5,0.7-1.5,1.5s0.7,1.5,1.5,1.5c0.9,0,1.5-0.7,1.5-1.5C96.6,70.3,95.9,69.6,94.9,69.6"/>
	<path class="st0" d="M90.3,74.3c0,0.9,0.7,1.5,1.5,1.5c0.9,0,1.5-0.7,1.5-1.5c0-0.9-0.7-1.5-1.5-1.5C91.1,72.7,90.3,73.5,90.3,74.3
		"/>
	<path class="st0" d="M89.6,68.9c-0.9,0-1.5,0.7-1.5,1.5s0.7,1.5,1.5,1.5c0.9,0,1.5-0.7,1.5-1.5C91.1,69.6,90.4,68.9,89.6,68.9"/>
	<path class="st0" d="M87.1,64.9c-0.9,0-1.5,0.7-1.5,1.5c0,0.9,0.7,1.5,1.5,1.5c0.9,0,1.5-0.7,1.5-1.5S88,64.9,87.1,64.9"/>
	<path class="st0" d="M84.2,68.5c-0.9,0-1.5,0.7-1.5,1.5s0.7,1.5,1.5,1.5c0.9,0,1.5-0.7,1.5-1.5S85,68.5,84.2,68.5"/>
	<path class="st0" d="M78.6,68.5c-0.9,0-1.5,0.7-1.5,1.5s0.7,1.5,1.5,1.5c0.9,0,1.5-0.7,1.5-1.5C80.2,69.2,79.4,68.5,78.6,68.5"/>
	<path class="st0" d="M76.3,72.2c-0.9,0-1.5,0.7-1.5,1.5s0.7,1.5,1.5,1.5c0.9,0,1.5-0.7,1.5-1.5C77.8,72.8,77.2,72.2,76.3,72.2"/>
	<path class="st0" d="M77.4,76.8c0,0.9,0.7,1.5,1.5,1.5c0.9,0,1.5-0.7,1.5-1.5c0-0.9-0.7-1.5-1.5-1.5C78,75.3,77.4,75.9,77.4,76.8"
		/>
	<path class="st0" d="M72.4,77.2c0,0.9,0.7,1.5,1.5,1.5c0.9,0,1.5-0.7,1.5-1.5c0-0.9-0.7-1.5-1.5-1.5C73,75.6,72.4,76.3,72.4,77.2"
		/>
	<path class="st0" d="M70.4,78c-0.9,0-1.5,0.7-1.5,1.5c0,0.9,0.7,1.5,1.5,1.5c0.9,0,1.5-0.7,1.5-1.5C72,78.7,71.2,78,70.4,78"/>
	<path class="st0" d="M66.8,83.5c0.9,0,1.5-0.7,1.5-1.5c0-0.9-0.7-1.5-1.5-1.5c-0.9,0-1.5,0.7-1.5,1.5
		C65.2,82.8,65.9,83.5,66.8,83.5"/>
	<path class="st0" d="M65.7,76.6c0,0.9,0.7,1.5,1.5,1.5c0.9,0,1.5-0.7,1.5-1.5c0-0.9-0.7-1.5-1.5-1.5C66.3,75.1,65.7,75.8,65.7,76.6
		"/>
	<path class="st0" d="M61.6,79.1c0,0.9,0.7,1.5,1.5,1.5c0.9,0,1.5-0.7,1.5-1.5c0-0.9-0.7-1.5-1.5-1.5C62.3,77.5,61.6,78.2,61.6,79.1
		"/>
	<path class="st0" d="M58.8,83.4c0.9,0,1.5-0.7,1.5-1.5s-0.7-1.5-1.5-1.5c-0.9,0-1.5,0.7-1.5,1.5C57.3,82.7,58,83.4,58.8,83.4"/>
	<path class="st0" d="M54.6,80.2c0.9,0,1.5-0.7,1.5-1.5c0-0.9-0.7-1.5-1.5-1.5c-0.9,0-1.5,0.7-1.5,1.5C53,79.5,53.7,80.2,54.6,80.2"
		/>
	<path class="st0" d="M59.2,77.6c0.9,0,1.5-0.7,1.5-1.5c0-0.9-0.7-1.5-1.5-1.5c-0.9,0-1.5,0.7-1.5,1.5S58.4,77.6,59.2,77.6"/>
	<path class="st0" d="M55.4,71.1c-0.9,0-1.5,0.7-1.5,1.5c0,0.9,0.7,1.5,1.5,1.5c0.9,0,1.5-0.7,1.5-1.5C57,71.8,56.2,71.1,55.4,71.1"
		/>
	<path class="st0" d="M60,71.7c0.9,0,1.5-0.7,1.5-1.5c0-0.9-0.7-1.5-1.5-1.5c-0.9,0-1.5,0.7-1.5,1.5C58.4,71,59.1,71.7,60,71.7"/>
	<path class="st0" d="M63.7,71.9c-0.9,0-1.5,0.7-1.5,1.5c0,0.9,0.7,1.5,1.5,1.5c0.9,0,1.5-0.7,1.5-1.5
		C65.3,72.5,64.5,71.9,63.7,71.9"/>
	<path class="st0" d="M66.3,71.1c0,0.9,0.7,1.5,1.5,1.5c0.9,0,1.5-0.7,1.5-1.5c0-0.9-0.7-1.5-1.5-1.5C67.1,69.5,66.3,70.3,66.3,71.1
		"/>
	<path class="st0" d="M69.4,74.3c0,0.9,0.7,1.5,1.5,1.5c0.9,0,1.5-0.7,1.5-1.5c0-0.9-0.7-1.5-1.5-1.5C70.1,72.7,69.4,73.5,69.4,74.3
		"/>
	<path class="st0" d="M62.9,86.2c0.9,0,1.5-0.7,1.5-1.5c0-0.9-0.7-1.5-1.5-1.5s-1.5,0.7-1.5,1.5S62.1,86.2,62.9,86.2"/>
	<path class="st0" d="M81.5,72c-0.9,0-1.5,0.7-1.5,1.5s0.7,1.5,1.5,1.5c0.9,0,1.5-0.7,1.5-1.5C83,72.6,82.4,72,81.5,72"/>
	<path class="st0" d="M92.7,65.4c-0.9,0-1.5,0.7-1.5,1.5c0,0.9,0.7,1.5,1.5,1.5c0.9,0,1.5-0.7,1.5-1.5
		C94.3,66.1,93.5,65.4,92.7,65.4"/>
	<path class="st0" d="M94.5,63.1c0,0.9,0.7,1.5,1.5,1.5c0.9,0,1.5-0.7,1.5-1.5c0-0.9-0.7-1.5-1.5-1.5C95.1,61.6,94.5,62.2,94.5,63.1
		"/>
	<path class="st0" d="M90.1,64c0.9,0,1.5-0.7,1.5-1.5c0-0.9-0.7-1.5-1.5-1.5c-0.9,0-1.5,0.7-1.5,1.5C88.6,63.4,89.3,64,90.1,64"/>
	<path class="st0" d="M93.4,60.2c0.9,0,1.5-0.7,1.5-1.5s-0.7-1.5-1.5-1.5c-0.9,0-1.5,0.7-1.5,1.5C91.9,59.5,92.6,60.2,93.4,60.2"/>
	<path class="st0" d="M87.5,59.4c0.9,0,1.5-0.7,1.5-1.5c0-0.9-0.7-1.5-1.5-1.5c-0.9,0-1.5,0.7-1.5,1.5
		C85.9,58.7,86.6,59.4,87.5,59.4"/>
	<path class="st0" d="M81.4,59.1c0.9,0,1.5-0.7,1.5-1.5c0-0.9-0.7-1.5-1.5-1.5c-0.9,0-1.5,0.7-1.5,1.5S80.6,59.1,81.4,59.1"/>
	<path class="st0" d="M75.4,59.4c0.9,0,1.5-0.7,1.5-1.5c0-0.9-0.7-1.5-1.5-1.5c-0.9,0-1.5,0.7-1.5,1.5
		C73.9,58.7,74.5,59.4,75.4,59.4"/>
	<path class="st0" d="M69.5,60.2c0.9,0,1.5-0.7,1.5-1.5s-0.7-1.5-1.5-1.5S68,57.8,68,58.7C68,59.5,68.7,60.2,69.5,60.2"/>
	<path class="st0" d="M78.5,63.8c0.9,0,1.5-0.7,1.5-1.5c0-0.9-0.7-1.5-1.5-1.5c-0.9,0-1.5,0.7-1.5,1.5C76.9,63,77.7,63.8,78.5,63.8"
		/>
	<path class="st0" d="M72.7,64.1c0.9,0,1.5-0.7,1.5-1.5c0-0.9-0.7-1.5-1.5-1.5c-0.9,0-1.5,0.7-1.5,1.5
		C71.1,63.4,71.9,64.1,72.7,64.1"/>
	<path class="st0" d="M70.2,65.5c-0.9,0-1.5,0.7-1.5,1.5c0,0.9,0.7,1.5,1.5,1.5c0.9,0,1.5-0.7,1.5-1.5C71.7,66.1,71,65.5,70.2,65.5"
		/>
	<path class="st0" d="M64.5,69.5c0.9,0,1.5-0.7,1.5-1.5s-0.7-1.5-1.5-1.5c-0.9,0-1.5,0.7-1.5,1.5C63,68.8,63.7,69.5,64.5,69.5"/>
	<path class="st0" d="M61.3,65.8c0.9,0,1.5-0.7,1.5-1.5c0-0.9-0.7-1.5-1.5-1.5c-0.9,0-1.5,0.7-1.5,1.5
		C59.7,65.2,60.5,65.8,61.3,65.8"/>
	<path class="st0" d="M66.9,64.7c0.9,0,1.5-0.7,1.5-1.5c0-0.9-0.7-1.5-1.5-1.5c-0.9,0-1.5,0.7-1.5,1.5S66,64.7,66.9,64.7"/>
	<path class="st0" d="M71.8,70.5c0,0.9,0.7,1.5,1.5,1.5c0.9,0,1.5-0.7,1.5-1.5c0-0.9-0.7-1.5-1.5-1.5C72.5,68.9,71.8,69.6,71.8,70.5
		"/>
	<path class="st0" d="M75.8,64.9c-0.9,0-1.5,0.7-1.5,1.5c0,0.9,0.7,1.5,1.5,1.5c0.9,0,1.5-0.7,1.5-1.5S76.6,64.9,75.8,64.9"/>
	<path class="st0" d="M84.3,63.8c0.9,0,1.5-0.7,1.5-1.5c0-0.9-0.7-1.5-1.5-1.5c-0.9,0-1.5,0.7-1.5,1.5C82.8,63,83.4,63.8,84.3,63.8"
		/>
	<path class="st0" d="M81.5,64.6c-0.9,0-1.5,0.7-1.5,1.5c0,0.9,0.7,1.5,1.5,1.5c0.9,0,1.5-0.7,1.5-1.5C83,65.4,82.4,64.6,81.5,64.6"
		/>
	<path class="st0" d="M90.5,77.1c0-0.9-0.7-1.5-1.5-1.5c-0.9,0-1.5,0.7-1.5,1.5c0,0.9,0.7,1.5,1.5,1.5
		C89.8,78.7,90.5,77.9,90.5,77.1"/>
	<path class="st0" d="M86.3,78.2c-0.9,0-1.5,0.7-1.5,1.5c0,0.9,0.7,1.5,1.5,1.5c0.9,0,1.5-0.7,1.5-1.5C88,79,87.2,78.2,86.3,78.2"/>
	<path class="st0" d="M82.4,76.8c0,0.9,0.7,1.5,1.5,1.5c0.9,0,1.5-0.7,1.5-1.5c0-0.9-0.7-1.5-1.5-1.5C83,75.2,82.4,75.9,82.4,76.8"
		/>
	<path class="st0" d="M81.4,78.1c-0.9,0-1.5,0.7-1.5,1.5c0,0.9,0.7,1.5,1.5,1.5c0.9,0,1.5-0.7,1.5-1.5C83,78.9,82.3,78.1,81.4,78.1"
		/>
	<path class="st0" d="M77.5,82.3c0,0.9,0.7,1.5,1.5,1.5c0.9,0,1.5-0.7,1.5-1.5c0-0.9-0.7-1.5-1.5-1.5C78.2,80.8,77.5,81.4,77.5,82.3
		"/>
	<path class="st0" d="M76.5,78.3c-0.9,0-1.5,0.7-1.5,1.5c0,0.9,0.7,1.5,1.5,1.5c0.9,0,1.5-0.7,1.5-1.5C78.1,79,77.4,78.3,76.5,78.3"
		/>
	<path class="st0" d="M76.4,86.2c0.9,0,1.5-0.7,1.5-1.5c0-0.9-0.7-1.5-1.5-1.5c-0.9,0-1.5,0.7-1.5,1.5
		C74.9,85.6,75.6,86.2,76.4,86.2"/>
	<path class="st0" d="M73.5,83.8c0.9,0,1.5-0.7,1.5-1.5c0-0.9-0.7-1.5-1.5-1.5c-0.9,0-1.5,0.7-1.5,1.5C72,83.1,72.6,83.8,73.5,83.8"
		/>
	<path class="st0" d="M73.5,88.8c0.9,0,1.5-0.7,1.5-1.5c0-0.9-0.7-1.5-1.5-1.5c-0.9,0-1.5,0.7-1.5,1.5C72,88,72.6,88.8,73.5,88.8"/>
	<path class="st0" d="M70.3,86.2c0.9,0,1.5-0.7,1.5-1.5c0-0.9-0.7-1.5-1.5-1.5c-0.9,0-1.5,0.7-1.5,1.5
		C68.7,85.5,69.3,86.2,70.3,86.2"/>
	<path class="st0" d="M70.5,91.4c0.9,0,1.5-0.7,1.5-1.5c0-0.9-0.7-1.5-1.5-1.5c-0.9,0-1.5,0.7-1.5,1.5C69,90.7,69.6,91.4,70.5,91.4"
		/>
	<path class="st0" d="M66.8,89.1c0.9,0,1.5-0.7,1.5-1.5c0-0.9-0.7-1.5-1.5-1.5c-0.9,0-1.5,0.7-1.5,1.5
		C65.2,88.3,65.9,89.1,66.8,89.1"/>
	<path class="st0" d="M67.2,94.4c0.9,0,1.5-0.7,1.5-1.5c0-0.9-0.7-1.5-1.5-1.5c-0.9,0-1.5,0.7-1.5,1.5
		C65.7,93.7,66.3,94.4,67.2,94.4"/>
	<path class="st0" d="M63.7,97.5c0.9,0,1.5-0.7,1.5-1.5c0-0.9-0.7-1.5-1.5-1.5s-1.5,0.7-1.5,1.5C62.2,96.8,62.8,97.5,63.7,97.5"/>
	<path class="st0" d="M60.8,93.4c0-0.9-0.7-1.5-1.5-1.5c-0.9,0-1.5,0.7-1.5,1.5c0,0.9,0.7,1.5,1.5,1.5
		C60.1,94.9,60.8,94.3,60.8,93.4"/>
	<path class="st0" d="M56.1,90.7c0-0.9-0.7-1.5-1.5-1.5c-0.9,0-1.5,0.7-1.5,1.5c0,0.9,0.7,1.5,1.5,1.5
		C55.4,92.3,56.1,91.5,56.1,90.7"/>
	<path class="st0" d="M58.8,89.2c0.9,0,1.5-0.7,1.5-1.5c0-0.9-0.7-1.5-1.5-1.5c-0.9,0-1.5,0.7-1.5,1.5C57.3,88.5,58,89.2,58.8,89.2"
		/>
	<path class="st0" d="M54.3,86.2c0.9,0,1.5-0.7,1.5-1.5c0-0.9-0.7-1.5-1.5-1.5c-0.9,0-1.5,0.7-1.5,1.5
		C52.8,85.5,53.5,86.2,54.3,86.2"/>
	<path class="st0" d="M63.1,91.8c0.9,0,1.5-0.7,1.5-1.5c0-0.9-0.7-1.5-1.5-1.5s-1.5,0.7-1.5,1.5C61.6,91.2,62.3,91.8,63.1,91.8"/>
	<path class="st0" d="M55.4,95c-0.9,0-1.5,0.7-1.5,1.5c0,0.9,0.7,1.5,1.5,1.5c0.9,0,1.5-0.7,1.5-1.5C57,95.7,56.2,95,55.4,95"/>
	<path class="st0" d="M61.4,99.3c0-0.9-0.7-1.5-1.5-1.5c-0.9,0-1.5,0.7-1.5,1.5c0,0.9,0.7,1.5,1.5,1.5S61.4,100.1,61.4,99.3"/>
	<path class="st0" d="M80.6,87.1c0-0.9-0.7-1.5-1.5-1.5c-0.9,0-1.5,0.7-1.5,1.5c0,0.9,0.7,1.5,1.5,1.5
		C79.9,88.7,80.6,87.9,80.6,87.1"/>
	<path class="st0" d="M81.4,91.3c0.9,0,1.5-0.7,1.5-1.5c0-0.9-0.7-1.5-1.5-1.5c-0.9,0-1.5,0.7-1.5,1.5
		C79.9,90.5,80.6,91.3,81.4,91.3"/>
	<path class="st0" d="M80.5,92.6c0-0.9-0.7-1.5-1.5-1.5c-0.9,0-1.5,0.7-1.5,1.5c0,0.9,0.7,1.5,1.5,1.5
		C79.7,94.2,80.5,93.4,80.5,92.6"/>
	<path class="st0" d="M76.3,97.3c0.9,0,1.5-0.7,1.5-1.5c0-0.9-0.7-1.5-1.5-1.5c-0.9,0-1.5,0.7-1.5,1.5
		C74.7,96.5,75.5,97.3,76.3,97.3"/>
	<path class="st0" d="M78.7,100.9c0.9,0,1.5-0.7,1.5-1.5c0-0.9-0.7-1.5-1.5-1.5c-0.9,0-1.5,0.7-1.5,1.5
		C77.1,100.2,77.8,100.9,78.7,100.9"/>
	<path class="st0" d="M75.8,104.5c0.9,0,1.5-0.7,1.5-1.5c0-0.9-0.7-1.5-1.5-1.5c-0.9,0-1.5,0.7-1.5,1.5S74.9,104.5,75.8,104.5"/>
	<path class="st0" d="M70.1,103.9c0.9,0,1.5-0.7,1.5-1.5c0-0.9-0.7-1.5-1.5-1.5c-0.9,0-1.5,0.7-1.5,1.5
		C68.6,103.3,69.2,103.9,70.1,103.9"/>
	<path class="st0" d="M67.9,99.8c0.9,0,1.5-0.7,1.5-1.5c0-0.9-0.7-1.5-1.5-1.5c-0.9,0-1.5,0.7-1.5,1.5
		C66.4,99.1,67.1,99.8,67.9,99.8"/>
	<path class="st0" d="M73.3,100.5c0.9,0,1.5-0.7,1.5-1.5c0-0.9-0.7-1.5-1.5-1.5c-0.9,0-1.5,0.7-1.5,1.5
		C71.8,99.8,72.5,100.5,73.3,100.5"/>
	<path class="st0" d="M72.6,95c0-0.9-0.7-1.5-1.5-1.5c-0.9,0-1.5,0.7-1.5,1.5c0,0.9,0.7,1.5,1.5,1.5C71.8,96.6,72.6,95.9,72.6,95"/>
	<path class="st0" d="M73.9,93.8c0.9,0,1.5-0.7,1.5-1.5c0-0.9-0.7-1.5-1.5-1.5c-0.9,0-1.5,0.7-1.5,1.5C72.3,93.1,73,93.8,73.9,93.8"
		/>
	<path class="st0" d="M76.5,91.2c0.9,0,1.5-0.7,1.5-1.5c0-0.9-0.7-1.5-1.5-1.5c-0.9,0-1.5,0.7-1.5,1.5C75,90.4,75.7,91.2,76.5,91.2"
		/>
	<path class="st0" d="M66.1,101.5c0-0.9-0.7-1.5-1.5-1.5c-0.9,0-1.5,0.7-1.5,1.5c0,0.9,0.7,1.5,1.5,1.5
		C65.4,103,66.1,102.3,66.1,101.5"/>
	<path class="st0" d="M66.9,104.7c-0.9,0-1.5,0.7-1.5,1.5c0,0.9,0.7,1.5,1.5,1.5c0.9,0,1.5-0.7,1.5-1.5
		C68.4,105.3,67.7,104.7,66.9,104.7"/>
	<path class="st0" d="M61.2,103.5c-0.9,0-1.5,0.7-1.5,1.5c0,0.9,0.7,1.5,1.5,1.5c0.9,0,1.5-0.7,1.5-1.5
		C62.8,104.2,62.1,103.5,61.2,103.5"/>
	<path class="st0" d="M72.7,105.3c-0.9,0-1.5,0.7-1.5,1.5c0,0.9,0.7,1.5,1.5,1.5c0.9,0,1.5-0.7,1.5-1.5
		C74.3,106,73.6,105.3,72.7,105.3"/>
	<path class="st0" d="M86.5,72.2c-0.9,0-1.5,0.7-1.5,1.5s0.7,1.5,1.5,1.5c0.9,0,1.5-0.7,1.5-1.5C88.1,72.8,87.4,72.2,86.5,72.2"/>
	<path class="st0" d="M97.6,73.5c0,0.9,0.7,1.5,1.5,1.5c0.9,0,1.5-0.7,1.5-1.5c0-0.9-0.7-1.5-1.5-1.5C98.3,71.9,97.6,72.6,97.6,73.5
		"/>
	<path class="st0" d="M95.7,75.1c-0.9,0-1.5,0.7-1.5,1.5c0,0.9,0.7,1.5,1.5,1.5c0.9,0,1.5-0.7,1.5-1.5
		C97.2,75.8,96.6,75.1,95.7,75.1"/>
	<path class="st0" d="M99.7,80.6c0.9,0,1.5-0.7,1.5-1.5c0-0.9-0.7-1.5-1.5-1.5c-0.9,0-1.5,0.7-1.5,1.5
		C98.2,79.9,98.8,80.6,99.7,80.6"/>
	<path class="st0" d="M100,83.1c-0.9,0-1.5,0.7-1.5,1.5c0,0.9,0.7,1.5,1.5,1.5c0.9,0,1.5-0.7,1.5-1.5
		C101.5,83.8,100.8,83.1,100,83.1"/>
	<path class="st0" d="M94.5,82c0,0.9,0.7,1.5,1.5,1.5c0.9,0,1.5-0.7,1.5-1.5c0-0.9-0.7-1.5-1.5-1.5C95.2,80.4,94.5,81.1,94.5,82"/>
	<path class="st0" d="M92.5,81.1c0.9,0,1.5-0.7,1.5-1.5c0-0.9-0.7-1.5-1.5-1.5S91,78.8,91,79.6C90.9,80.4,91.6,81.1,92.5,81.1"/>
	<path class="st0" d="M136.7,108.4v7.1c-1.5,0.3-3.1,0.7-4.7,0.7c-2.8,0-4.3-1-5.2-1.9c-0.9-0.9-1.9-2.6-1.9-5.5
		c0-2.6,0.9-4.3,1.6-5.1c0.3-0.4,0.9-1.1,2.2-1.7c0.5-0.2,1.6-0.6,3.1-0.6c1.7,0,3.6,0.6,4.5,2.1c0.4,0.7,0.5,1.4,0.6,1.7h-2.2
		c-0.1-0.4-0.1-0.6-0.3-0.9c-0.7-1.3-2.6-1.3-2.8-1.3c-0.4,0-1.5,0-2.5,0.7c-0.4,0.3-0.7,0.6-0.9,0.9c-1.1,1.5-1.1,3.4-1.1,4
		c0,0.4,0,1.6,0.4,2.8c0.2,0.6,0.7,1.7,2,2.5c0.5,0.3,1.4,0.8,2.8,0.8c0.7,0,1.2-0.1,2.6-0.4V110h-3.2v-1.7L136.7,108.4L136.7,108.4
		z"/>
	<path class="st0" d="M146.1,110c0-0.2,0-0.4,0-0.6c-0.1-0.4-0.2-1.2-1-1.8c-0.6-0.4-1.1-0.4-1.3-0.4c-0.3,0-0.8,0-1.2,0.4
		c-0.9,0.6-1.1,1.4-1.3,2.6L146.1,110z M141.2,111.5c0,0.3,0,0.6,0.1,0.8c0.1,0.4,0.2,1.4,1.1,2.1c0.6,0.5,1.1,0.5,1.4,0.5
		c0.8,0,1.5-0.4,2-1.1c0.1-0.2,0.2-0.5,0.4-0.9h1.9c-0.2,0.8-0.3,1.4-0.8,2.1c-0.6,0.7-1.5,1.4-3.6,1.4c-0.5,0-1.6,0-2.7-0.9
		c-1.3-1-1.8-2.6-1.8-4.3c0-1.9,0.7-3.1,1.2-3.7c0.9-1,2.1-1.5,3.4-1.5c0.8,0,1.3,0.2,1.6,0.3c1.7,0.7,2.4,2.3,2.5,2.9
		c0.2,0.8,0.2,1.7,0.2,2.5H141.2z"/>
	<path class="st0" d="M152.2,106.1l0.1,1.2c1.3-1.1,1.7-1.3,3.5-1.4v2c-0.2,0-0.7-0.1-1.1-0.1c-1.4,0-2.1,0.9-2.4,1.5
		c-0.2,0.4-0.2,0.8-0.2,1.2v5.6h-1.9v-10H152.2z"/>
	<path class="st0" d="M159.4,107.1c0.3-0.3,0.4-0.5,0.6-0.6c0.6-0.5,1.6-0.8,2.4-0.8c0.4,0,1.2,0.1,2.2,0.8c0.2,0.2,0.4,0.4,0.9,0.7
		c1-0.9,1.8-1.5,3.2-1.5c1.4,0,2.7,0.8,3.2,2.1c0.2,0.6,0.2,1.1,0.2,1.8v6.3h-1.9v-6.7c0,0,0-0.5-0.2-0.8c-0.3-0.8-1-1.1-1.8-1.1
		c-0.4,0-1.2,0.1-1.8,0.9c-0.6,0.7-0.6,1.4-0.6,2.3v5.5h-1.9c0-1.2,0-2.4,0-3.6c0-0.9,0.1-1.7-0.1-3.5c-0.1-0.3-0.1-0.5-0.3-0.7
		c-0.2-0.4-0.5-0.9-1.5-0.9c-0.7,0-1.3,0.3-1.8,0.9c-0.6,0.6-0.6,1.1-0.8,2v6h-1.9v-10h1.8L159.4,107.1z"/>
	<path class="st0" d="M179.2,110.9c-0.3,0-0.9,0-1.6,0.3c-0.9,0.3-1.6,0.9-1.6,1.9c0,1.1,0.9,1.7,2,1.7c0.3,0,0.5,0,0.8-0.1
		c0.8-0.2,1.4-0.8,1.7-1.5c0.1-0.2,0.1-0.4,0.1-0.8c0-0.5,0-0.9,0-1.3C180.2,110.9,179.7,110.9,179.2,110.9 M174.6,108.7
		c0-0.3,0-0.9,0.5-1.6c0.8-1,2-1.2,2.3-1.2c0.2,0,0.7-0.1,1.2-0.1c0.4,0,0.8,0,1.1,0.1c0.4,0.1,1.9,0.3,2.4,1.6
		c0.3,0.7,0.3,1.3,0.3,2v4c0,1,0.1,1.3,0.4,2.4h-2l-0.2-1c-1,0.9-1.7,1.3-3,1.3c-0.2,0-0.9,0-1.4-0.3c-1.7-0.6-2-2.2-2-2.8
		c0-1.2,0.7-2.3,1.7-2.8c1-0.6,2.3-0.7,4.7-0.6c0-1,0-1.8-0.9-2.3c-0.2-0.1-0.8-0.4-1.4-0.4c-0.9,0-1.5,0.6-1.7,0.9
		c-0.1,0.2-0.2,0.4-0.3,0.9L174.6,108.7z"/>
	<path class="st0" d="M187.1,107c1-0.8,1.8-1.2,3.1-1.2c1.2,0,2.6,0.7,3,1.9c0.2,0.6,0.2,1.1,0.3,1.7v6.4h-1.8V110
		c-0.1-0.9-0.2-1.8-0.9-2.4c-0.2-0.2-0.6-0.4-1.1-0.4c-0.3,0-0.8,0.1-1.3,0.5c-0.9,0.7-1,1.8-1.1,2.9v5.3h-1.9v-5.5l-0.1-4.4h1.9
		L187.1,107L187.1,107z"/>
	<path class="st0" d="M198.6,111.5c0.4,1,0.5,1.6,0.8,2.6l2.9-8h2.1l-5.6,13.6h-2l1.6-4l-3.7-9.6h2.1c0.4,1.1,0.8,2.3,1.1,3.4
		L198.6,111.5z"/>
	<path class="st0" d="M135.3,86c0,1.5-0.2,2.1-0.5,2.5c-0.9,1.2-2.4,1.2-2.8,1.2c-3,0-3.2-2-3.2-3.6v-9.2h-3.1v9
		c0,1.3,0,2.5,0.8,3.6c1.4,2.2,4.1,2.6,5.5,2.6c2.9,0,6.4-1.4,6.4-5.8v-9.4h-3L135.3,86L135.3,86z"/>
	<path class="st0" d="M146.7,81.1c-2.3,0-3,1.3-3.3,1.8l-0.1-1.5h-2.8c0.1,0.8,0.1,1.8,0.1,1.9v8.4h3v-6c0-0.8,0.2-1.3,0.4-1.6
		c0.3-0.5,0.9-0.8,1.5-0.8c0.8,0,1.2,0.5,1.4,0.9c0.2,0.3,0.2,0.7,0.2,1.1v6.3h3v-5.5c0-1.9-0.1-2.5-0.3-3
		C149.6,82.4,148.7,81.1,146.7,81.1"/>
	<rect x="152.4" y="81.4" class="st0" width="3" height="10.2"/>
	<polygon class="st0" points="162.3,88.3 160.1,81.4 156.8,81.4 160.5,91.6 163.8,91.6 167.5,81.4 164.7,81.4 	"/>
	<path class="st0" d="M171.1,85.4c0.1-1.2,0.6-2.3,1.9-2.3c1.7,0,1.8,1.8,1.8,2.3H171.1z M173.1,81c-1.1,0-2.1,0.3-2.8,0.9
		c-1.7,1.2-2.1,3.2-2.1,4.8s0.4,3,1.3,4c1,1.1,2.7,1.2,3.6,1.2c1.5,0,2.8-0.4,3.6-1.2c0.9-0.9,0.9-1.7,0.9-2.3h-2.7
		c-0.3,1.1-1,1.4-1.8,1.4c-2.1,0-2.1-2.1-2.1-2.7h6.9c0-0.9,0.1-2.4-0.6-3.8C176.3,81.6,174.6,81,173.1,81"/>
	<path class="st0" d="M182.6,83.3l-0.1-2h-2.8c0.1,0.6,0.1,2.1,0.1,2.6v7.7h3v-5c0-1.2,0.2-2.8,3.2-2.6v-2.6
		C183.6,81.2,182.9,82.5,182.6,83.3"/>
	<path class="st0" d="M193.1,85.6l-1.8-0.5c-0.9-0.3-1.4-0.4-1.4-1s0.6-1,1.4-1c0.5,0,1.4,0.1,1.4,1.2h2.7c-0.1-2.1-1.8-3-3.9-3
		c-2.6,0-4.4,1.2-4.4,3.2c0,2.1,1.8,2.6,2.6,2.8l1.9,0.5c1.1,0.3,1.4,0.7,1.4,1.1c0,0.6-0.5,1.2-1.6,1.2c-1.2,0-1.7-0.8-1.7-1.4
		h-2.8c0,0.5,0.1,1.3,0.8,2c0.9,0.9,2.2,1.2,3.5,1.2c3.2,0,4.7-1.8,4.7-3.5C195.9,87,195,86.1,193.1,85.6"/>
	<rect x="197.8" y="81.4" class="st0" width="3" height="10.2"/>
	<path class="st0" d="M207.3,77.8l-2.9,0.6v3.1h-2v2h2v5.6c0,0.9,0,2.7,3,2.7c0.5,0,1.3-0.1,2.4-0.3v-2c-0.4,0-0.6,0.1-1,0.1
		c-1.3,0-1.3-0.6-1.3-1.5v-4.6h2.5v-2h-2.5L207.3,77.8L207.3,77.8z"/>
	<path class="st0" d="M199.3,76.9c-0.9,0-1.6,0.8-1.6,1.6c0,0.9,0.8,1.6,1.6,1.6c0.9,0,1.6-0.8,1.6-1.6
		C200.9,77.6,200.1,76.9,199.3,76.9"/>
	<path class="st0" d="M153.9,76.9c-0.9,0-1.6,0.8-1.6,1.6c0,0.9,0.8,1.6,1.6,1.6c0.9,0,1.6-0.8,1.6-1.6
		C155.5,77.6,154.8,76.9,153.9,76.9"/>
	<polygon class="st0" points="214.1,81.3 216.8,88.4 219.3,81.3 222.3,81.3 216.5,95.4 213.5,95.4 215.2,91.4 211,81.3 	"/>
	<path class="st0" d="M230.4,83.6c-0.3,0.3-0.4,0.5-0.5,0.6c-0.4,0.6-0.6,1.4-0.6,2.6c0,0.1-0.1,1.6,0.8,2.6
		c0.1,0.1,0.3,0.3,0.4,0.4c0.2,0.2,0.7,0.4,1.1,0.4c0.1,0,0.3,0,0.6-0.1c0.7-0.2,1.1-0.8,1.2-1c0.5-0.9,0.5-2.4,0.5-2.5
		c0-0.2,0-1.2-0.4-2c-0.2-0.4-0.4-0.6-0.5-0.7c-0.2-0.2-0.4-0.3-0.5-0.4c-0.2-0.1-0.7-0.3-1.1-0.3C230.9,83.1,230.6,83.4,230.4,83.6
		 M235.4,82.6c0.2,0.2,0.6,0.7,0.9,1.2c0.2,0.4,0.4,0.9,0.4,1c0.1,0.3,0.2,0.9,0.2,1.6c0,0.4,0,0.8-0.1,1.2c-0.1,0.9-0.5,2.1-1.5,3
		c-0.8,0.8-1.9,1.3-3.7,1.3c-1.7,0-2.8-0.5-3.6-1.1c-0.4-0.4-0.6-0.7-0.7-0.8c-0.6-0.8-0.9-1.8-0.9-3.6c0-0.5,0-1.2,0.5-2.4
		c0.2-0.5,0.4-0.9,0.8-1.2c0.8-0.9,2-1.6,3.8-1.7c0.4,0,1.8-0.1,3.2,0.8c0.2,0.1,0.3,0.2,0.5,0.3L235.4,82.6z"/>
	<path class="st0" d="M244.2,79.3c-0.7,0-1.2,0-1.4,0.1c-0.6,0.2-0.6,0.9-0.6,1.1v0.9h1.9v2h-1.9v8.3h-2.9v-8.3h-1.9v-2h1.9v-1.1
		c0-0.1,0-0.9,0.3-1.4c0.5-1.1,1.5-1.5,3.3-1.5c0.5,0,0.9,0,1.4,0.1L244.2,79.3z"/>
	<path class="st0" d="M257.6,83.2c-2.1-0.6-3.2-0.8-3.2-2.1c0-1.2,0.9-2,2.4-2c2.2,0,2.4,1.7,2.4,2.3h3c0-0.5,0-1.7-0.9-2.7
		c-1.1-1.4-2.9-1.7-4.4-1.7c-4.1,0-5.8,2.1-5.8,4.5c0,2.6,1.9,3.6,5.4,4.4c1.9,0.5,2.7,0.7,2.7,2c0,1.2-1,2.1-2.7,2.1
		c-2.6,0-2.6-2.1-2.6-2.7h-3.2c0,1.4,0.1,5,5.7,5c4.1,0,6.2-2.1,6.2-4.7C262.6,84.5,260.1,83.8,257.6,83.2"/>
	<path class="st0" d="M268.6,78.5l-3,1.1v2h-1.9v2h2v5.6c0,0.9,0,2.7,3,2.7c0.5,0,1.3-0.1,2.4-0.3v-2c-0.4,0-0.6,0.1-1,0.1
		c-1.3,0-1.3-0.6-1.3-1.5v-4.6h2.5v-2h-2.5L268.6,78.5L268.6,78.5z"/>
	<path class="st0" d="M282.2,88.2v-6.7H279v5.2c0,1.7,0,3.2-1.9,3.2c-1.6,0-1.6-1.3-1.6-2.3v-6.1h-3v6.3c0,0.5,0,1.9,0.7,2.7
		c0.6,0.8,1.7,1.4,3.1,1.4c2,0,2.7-1.1,3-1.6l0.1,1.3h2.9c0-0.3-0.1-0.5-0.1-0.8S282.3,90.5,282.2,88.2"/>
	<path class="st0" d="M296.1,78.5l-2.9,1.1v2h-4.3v-3.1l-2.9,1.1v2h-2v2h2v5.6c0,0.9,0,2.7,3,2.7c0.5,0,1.3-0.1,2.4-0.3v-2
		c-0.4,0-0.6,0.1-1,0.1c-1.3,0-1.3-0.6-1.3-1.5v-4.6h4.3v5.6c0,0.9,0,2.7,3,2.7c0.5,0,1.3-0.1,2.4-0.3v-2c-0.4,0-0.6,0.1-1,0.1
		c-1.3,0-1.3-0.6-1.3-1.5v-4.6h2.5v-2h-2.5v-3.1H296.1z"/>
	<path class="st0" d="M304.9,89.5c-2,0-2-2.5-2-2.9c0-2.2,0.9-3,2.1-3c1.8,0,2.1,2,2.1,3.1C307,87,307,89.5,304.9,89.5 M307.2,82.9
		c-0.3-0.5-0.9-1.4-2.8-1.4c-2.9,0-4.3,2.5-4.3,5c0,2.5,1.4,5,4.3,5c0.8,0,1.8-0.1,2.7-1.4c0,1.6,0,1.9-0.2,2.5
		c-0.2,0.9-0.9,1.3-1.9,1.3c-1.6,0-1.7-1.1-1.8-1.4h-2.8c0.2,3.1,3,3.3,4.5,3.3c2,0,5.1-0.4,5.1-4.2v-7.6c0-1,0.1-1.7,0.1-2.6h-2.8
		L307.2,82.9z"/>
	<path class="st0" d="M317.4,89.5c-0.3,0.3-0.8,0.6-1.2,0.6c-1,0-1.4-0.8-1.4-1.4c0-1.2,1.4-1.8,3.3-1.7
		C318,88,317.9,88.8,317.4,89.5 M320.8,85c0-0.5,0-1.7-0.8-2.6c-1-1.1-2.8-1.3-3.7-1.3c-0.9,0-2.2,0.2-3.1,0.9
		c-1,0.8-1.1,1.9-1.1,2.4h2.9c0-0.3,0-0.6,0.2-0.9c0.3-0.4,0.7-0.6,1.1-0.6c0.3,0,1,0.1,1.3,0.9c0.1,0.4,0.1,0.7,0.1,1.3
		c-1,0-2.8,0-4.1,0.6c-1.9,0.9-2.2,2.4-2.2,3.2c0,0.8,0.3,1.6,0.9,2.3c0.4,0.4,1,0.9,2.6,0.9c0.6,0,1.9,0,3-1.6c0,0.3,0,0.8,0.1,1.4
		h2.7c-0.2-0.9-0.3-1.7-0.3-2.6L320.8,85z"/>
	<path class="st0" d="M336.2,83.6v-2h-2.5v-3.1l-2.9,1.1v2h-2l0,0c-2,0.1-2.6,1-2.9,1.9l-0.1-2H323c0.1,0.6,0.2,2.1,0.2,2.6v7.7h3
		v-5c0-1.2,0-3.1,3.2-3.1h1.4v5.6c0,0.9,0,2.7,3,2.7c0.5,0,1.3-0.1,2.4-0.3v-2c-0.4,0-0.6,0.1-1,0.1c-1.3,0-1.3-0.6-1.3-1.5v-4.6
		L336.2,83.6L336.2,83.6z"/>
</g>
</svg>
